<svg width="155" height="18" viewBox="0 0 155 18" fill="none" xmlns="http://www.w3.org/2000/svg">
<path d="M0.396484 17V1.35938H5.875C7.77279 1.35938 9.21224 1.72461 10.1934 2.45508C11.1745 3.17839 11.665 4.24186 11.665 5.64551C11.665 6.41178 11.4681 7.08854 11.0742 7.67578C10.6803 8.25586 10.1325 8.68197 9.43066 8.9541C10.2327 9.15462 10.863 9.55924 11.3213 10.168C11.7868 10.7767 12.0195 11.5215 12.0195 12.4023C12.0195 13.9062 11.5397 15.0449 10.5801 15.8184C9.62044 16.5918 8.2526 16.9857 6.47656 17H0.396484ZM3.61914 10.1895V14.4111H6.37988C7.139 14.4111 7.72982 14.2321 8.15234 13.874C8.58203 13.5088 8.79688 13.0075 8.79688 12.3701C8.79688 10.9378 8.05566 10.2109 6.57324 10.1895H3.61914ZM3.61914 7.91211H6.00391C7.62956 7.88346 8.44238 7.23535 8.44238 5.96777C8.44238 5.25879 8.2347 4.75033 7.81934 4.44238C7.41113 4.12728 6.76302 3.96973 5.875 3.96973H3.61914V7.91211ZM20.9785 17C20.8353 16.7207 20.7314 16.3734 20.667 15.958C19.915 16.7959 18.9375 17.2148 17.7344 17.2148C16.5957 17.2148 15.6504 16.8854 14.8984 16.2266C14.1536 15.5677 13.7812 14.737 13.7812 13.7344C13.7812 12.5026 14.236 11.5573 15.1455 10.8984C16.0622 10.2396 17.3835 9.90658 19.1094 9.89941H20.5381V9.2334C20.5381 8.69629 20.3984 8.2666 20.1191 7.94434C19.847 7.62207 19.4137 7.46094 18.8193 7.46094C18.2965 7.46094 17.8848 7.58626 17.584 7.83691C17.2904 8.08757 17.1436 8.43132 17.1436 8.86816H14.0391C14.0391 8.19499 14.2467 7.57194 14.6621 6.99902C15.0775 6.42611 15.6647 5.97852 16.4238 5.65625C17.1829 5.32682 18.0352 5.16211 18.9805 5.16211C20.4128 5.16211 21.5479 5.52376 22.3857 6.24707C23.2308 6.96322 23.6533 7.97298 23.6533 9.27637V14.3145C23.6605 15.4173 23.8145 16.2516 24.1152 16.8174V17H20.9785ZM18.4111 14.8408C18.8695 14.8408 19.292 14.7406 19.6787 14.54C20.0654 14.3324 20.3519 14.0566 20.5381 13.7129V11.7148H19.3779C17.8239 11.7148 16.9967 12.252 16.8965 13.3262L16.8857 13.5088C16.8857 13.8955 17.0218 14.2142 17.2939 14.4648C17.5661 14.7155 17.9385 14.8408 18.4111 14.8408ZM32.5693 8.28809C32.1468 8.23079 31.7744 8.20215 31.4521 8.20215C30.2777 8.20215 29.5078 8.59961 29.1426 9.39453V17H26.0381V5.37695H28.9707L29.0566 6.7627C29.6797 5.69564 30.5426 5.16211 31.6455 5.16211C31.9893 5.16211 32.3115 5.20866 32.6123 5.30176L32.5693 8.28809ZM39.208 17.2148C37.5036 17.2148 36.1143 16.6921 35.04 15.6465C33.973 14.6009 33.4395 13.208 33.4395 11.4678V11.167C33.4395 9.99967 33.665 8.95768 34.1162 8.04102C34.5674 7.11719 35.2048 6.4082 36.0283 5.91406C36.859 5.41276 37.8044 5.16211 38.8643 5.16211C40.4541 5.16211 41.7038 5.66341 42.6133 6.66602C43.5299 7.66862 43.9883 9.09017 43.9883 10.9307V12.1982H36.5869C36.6872 12.9574 36.988 13.5661 37.4893 14.0244C37.9977 14.4827 38.6387 14.7119 39.4121 14.7119C40.6081 14.7119 41.5426 14.2786 42.2158 13.4121L43.7412 15.1201C43.2757 15.779 42.6455 16.2946 41.8506 16.667C41.0557 17.0322 40.1748 17.2148 39.208 17.2148ZM38.8535 7.67578C38.2376 7.67578 37.7363 7.88346 37.3496 8.29883C36.9701 8.71419 36.7266 9.30859 36.6191 10.082H40.9375V9.83496C40.9232 9.14746 40.737 8.61751 40.3789 8.24512C40.0208 7.86556 39.5124 7.67578 38.8535 7.67578ZM46.6094 17V7.6543H44.8799V5.37695H46.6094V4.38867C46.6094 3.08529 46.9818 2.07552 47.7266 1.35938C48.4785 0.636068 49.5277 0.274414 50.874 0.274414C51.3037 0.274414 51.8301 0.346029 52.4531 0.489258L52.4209 2.89551C52.1631 2.83105 51.848 2.79883 51.4756 2.79883C50.3083 2.79883 49.7246 3.34668 49.7246 4.44238V5.37695H52.0342V7.6543H49.7246V17H46.6094ZM53.1621 11.0811C53.1621 9.92806 53.3841 8.90039 53.8281 7.99805C54.2721 7.0957 54.9095 6.39746 55.7402 5.90332C56.5781 5.40918 57.5485 5.16211 58.6514 5.16211C60.2197 5.16211 61.498 5.64193 62.4863 6.60156C63.4818 7.5612 64.0368 8.86458 64.1514 10.5117L64.1729 11.3066C64.1729 13.0898 63.6751 14.5221 62.6797 15.6035C61.6842 16.6777 60.3486 17.2148 58.6729 17.2148C56.9971 17.2148 55.6579 16.6777 54.6553 15.6035C53.6598 14.5293 53.1621 13.0684 53.1621 11.2207V11.0811ZM56.2666 11.3066C56.2666 12.4095 56.4743 13.2546 56.8896 13.8418C57.305 14.4219 57.8994 14.7119 58.6729 14.7119C59.4248 14.7119 60.012 14.4255 60.4346 13.8525C60.8571 13.2725 61.0684 12.3486 61.0684 11.0811C61.0684 9.99967 60.8571 9.16178 60.4346 8.56738C60.012 7.97298 59.4176 7.67578 58.6514 7.67578C57.8923 7.67578 57.305 7.97298 56.8896 8.56738C56.4743 9.15462 56.2666 10.0677 56.2666 11.3066ZM65.6016 11.0811C65.6016 9.92806 65.8236 8.90039 66.2676 7.99805C66.7116 7.0957 67.349 6.39746 68.1797 5.90332C69.0176 5.40918 69.988 5.16211 71.0908 5.16211C72.6592 5.16211 73.9375 5.64193 74.9258 6.60156C75.9212 7.5612 76.4762 8.86458 76.5908 10.5117L76.6123 11.3066C76.6123 13.0898 76.1146 14.5221 75.1191 15.6035C74.1237 16.6777 72.7881 17.2148 71.1123 17.2148C69.4365 17.2148 68.0973 16.6777 67.0947 15.6035C66.0993 14.5293 65.6016 13.0684 65.6016 11.2207V11.0811ZM68.7061 11.3066C68.7061 12.4095 68.9137 13.2546 69.3291 13.8418C69.7445 14.4219 70.3389 14.7119 71.1123 14.7119C71.8643 14.7119 72.4515 14.4255 72.874 13.8525C73.2965 13.2725 73.5078 12.3486 73.5078 11.0811C73.5078 9.99967 73.2965 9.16178 72.874 8.56738C72.4515 7.97298 71.8571 7.67578 71.0908 7.67578C70.3317 7.67578 69.7445 7.97298 69.3291 8.56738C68.9137 9.15462 68.7061 10.0677 68.7061 11.3066ZM82.2412 2.51953V5.37695H84.2285V7.6543H82.2412V13.4551C82.2412 13.8848 82.3236 14.1927 82.4883 14.3789C82.653 14.5651 82.9681 14.6582 83.4336 14.6582C83.7773 14.6582 84.0817 14.6331 84.3467 14.583V16.9355C83.738 17.1217 83.1113 17.2148 82.4668 17.2148C80.2897 17.2148 79.1797 16.1156 79.1367 13.917V7.6543H77.4395V5.37695H79.1367V2.51953H82.2412Z" fill="#FF585B"/>
<path d="M98.8809 17H95.6582L89.3848 6.70898V17H86.1621V1.35938H89.3848L95.6689 11.6719V1.35938H98.8809V17ZM101.008 11.0811C101.008 9.92806 101.23 8.90039 101.674 7.99805C102.118 7.0957 102.755 6.39746 103.586 5.90332C104.424 5.40918 105.394 5.16211 106.497 5.16211C108.065 5.16211 109.344 5.64193 110.332 6.60156C111.327 7.5612 111.882 8.86458 111.997 10.5117L112.019 11.3066C112.019 13.0898 111.521 14.5221 110.525 15.6035C109.53 16.6777 108.194 17.2148 106.519 17.2148C104.843 17.2148 103.504 16.6777 102.501 15.6035C101.506 14.5293 101.008 13.0684 101.008 11.2207V11.0811ZM104.112 11.3066C104.112 12.4095 104.32 13.2546 104.735 13.8418C105.151 14.4219 105.745 14.7119 106.519 14.7119C107.271 14.7119 107.858 14.4255 108.28 13.8525C108.703 13.2725 108.914 12.3486 108.914 11.0811C108.914 9.99967 108.703 9.16178 108.28 8.56738C107.858 7.97298 107.263 7.67578 106.497 7.67578C105.738 7.67578 105.151 7.97298 104.735 8.56738C104.32 9.15462 104.112 10.0677 104.112 11.3066ZM116.842 5.37695L116.938 6.67676C117.762 5.66699 118.876 5.16211 120.279 5.16211C121.776 5.16211 122.804 5.75293 123.362 6.93457C124.179 5.75293 125.342 5.16211 126.854 5.16211C128.114 5.16211 129.052 5.53092 129.668 6.26855C130.284 6.99902 130.592 8.10189 130.592 9.57715V17H127.477V9.58789C127.477 8.92904 127.348 8.44922 127.09 8.14844C126.832 7.84049 126.377 7.68652 125.726 7.68652C124.795 7.68652 124.15 8.13053 123.792 9.01855L123.803 17H120.698V9.59863C120.698 8.92546 120.566 8.43848 120.301 8.1377C120.036 7.83691 119.585 7.68652 118.947 7.68652C118.066 7.68652 117.429 8.05176 117.035 8.78223V17H113.931V5.37695H116.842ZM139.723 17C139.579 16.7207 139.476 16.3734 139.411 15.958C138.659 16.7959 137.682 17.2148 136.479 17.2148C135.34 17.2148 134.395 16.8854 133.643 16.2266C132.898 15.5677 132.525 14.737 132.525 13.7344C132.525 12.5026 132.98 11.5573 133.89 10.8984C134.806 10.2396 136.128 9.90658 137.854 9.89941H139.282V9.2334C139.282 8.69629 139.143 8.2666 138.863 7.94434C138.591 7.62207 138.158 7.46094 137.563 7.46094C137.041 7.46094 136.629 7.58626 136.328 7.83691C136.035 8.08757 135.888 8.43132 135.888 8.86816H132.783C132.783 8.19499 132.991 7.57194 133.406 6.99902C133.822 6.42611 134.409 5.97852 135.168 5.65625C135.927 5.32682 136.779 5.16211 137.725 5.16211C139.157 5.16211 140.292 5.52376 141.13 6.24707C141.975 6.96322 142.397 7.97298 142.397 9.27637V14.3145C142.405 15.4173 142.559 16.2516 142.859 16.8174V17H139.723ZM137.155 14.8408C137.614 14.8408 138.036 14.7406 138.423 14.54C138.81 14.3324 139.096 14.0566 139.282 13.7129V11.7148H138.122C136.568 11.7148 135.741 12.252 135.641 13.3262L135.63 13.5088C135.63 13.8955 135.766 14.2142 136.038 14.4648C136.31 14.7155 136.683 14.8408 137.155 14.8408ZM144.299 11.1025C144.299 9.29069 144.703 7.84766 145.513 6.77344C146.329 5.69922 147.443 5.16211 148.854 5.16211C149.985 5.16211 150.92 5.58464 151.657 6.42969V0.5H154.772V17H151.969L151.818 15.7646C151.045 16.7314 150.049 17.2148 148.832 17.2148C147.464 17.2148 146.365 16.6777 145.534 15.6035C144.711 14.5221 144.299 13.0218 144.299 11.1025ZM147.403 11.3281C147.403 12.4167 147.593 13.251 147.973 13.8311C148.352 14.4111 148.904 14.7012 149.627 14.7012C150.587 14.7012 151.263 14.2965 151.657 13.4873V8.90039C151.271 8.09115 150.601 7.68652 149.648 7.68652C148.152 7.68652 147.403 8.90039 147.403 11.3281Z" fill="white"/>
</svg>
